<?xml version="1.0" encoding="UTF-8"?>
<svg xmlns="http://www.w3.org/2000/svg" viewBox="0 0 968 226" width="968" height="226" font-family="system-ui, -apple-system, 'Segoe UI', Roboto, Helvetica, Arial, sans-serif" role="img" aria-label="The ITASC pipeline: input maps, nucleus tracking, cell bodies, contacts and aggregation, with correction on the tracking and cell stages."><defs><marker id="ar" markerWidth="8" markerHeight="8" refX="5.6" refY="3" orient="auto"><path d="M0,0 L6,3 L0,6 Z" fill="#8b959c"/></marker><marker id="arf" markerWidth="8" markerHeight="8" refX="5.6" refY="3" orient="auto"><path d="M0,0 L6,3 L0,6 Z" fill="#e0e6e8"/></marker></defs><rect x="1" y="1" width="966" height="224" rx="14" fill="#ffffff" stroke="#e4e9eb" stroke-width="1"/><line x1="183.0" y1="66.0" x2="215.0" y2="66.0" stroke="#8b959c" stroke-width="1.6" marker-end="url(#ar)"/><line x1="373.0" y1="66.0" x2="405.0" y2="66.0" stroke="#8b959c" stroke-width="1.6" marker-end="url(#ar)"/><line x1="563.0" y1="66.0" x2="595.0" y2="66.0" stroke="#8b959c" stroke-width="1.6" marker-end="url(#ar)"/><line x1="753.0" y1="66.0" x2="785.0" y2="66.0" stroke="#8b959c" stroke-width="1.6" marker-end="url(#ar)"/><line x1="314.3" y1="87.0" x2="368.7" y2="143.0" stroke="#8b959c" stroke-width="1.6" marker-end="url(#ar)"/><line x1="463.7" y1="87.0" x2="409.3" y2="143.0" stroke="#8b959c" stroke-width="1.6" marker-end="url(#ar)"/><rect x="18" y="40" width="172" height="52" rx="10" fill="#e9f0fe" stroke="#2f6df0" stroke-width="1.6"/><text x="104" y="63" text-anchor="middle" font-size="15" font-weight="600" fill="#1c4fbf">Input maps</text><text x="104" y="80" text-anchor="middle" font-family="ui-monospace, 'SF Mono', 'Cascadia Code', Menlo, Consolas, monospace" font-size="11" fill="#616b72">Cellpose → fg + contour</text><rect x="208" y="40" width="172" height="52" rx="10" fill="#e2f4f1" stroke="#0d9488" stroke-width="1.6"/><text x="294" y="63" text-anchor="middle" font-size="15" font-weight="600" fill="#0a6f66">Nucleus tracking</text><text x="294" y="80" text-anchor="middle" font-family="ui-monospace, 'SF Mono', 'Cascadia Code', Menlo, Consolas, monospace" font-size="11" fill="#616b72">Ultrack: outline + track</text><rect x="398" y="40" width="172" height="52" rx="10" fill="#e9f4e9" stroke="#3f9142" stroke-width="1.6"/><text x="484" y="63" text-anchor="middle" font-size="15" font-weight="600" fill="#2f6f31">Cell bodies</text><text x="484" y="80" text-anchor="middle" font-family="ui-monospace, 'SF Mono', 'Cascadia Code', Menlo, Consolas, monospace" font-size="11" fill="#616b72">grow from nuclei</text><rect x="588" y="40" width="172" height="52" rx="10" fill="#efeafb" stroke="#7c5cd6" stroke-width="1.6"/><text x="674" y="63" text-anchor="middle" font-size="15" font-weight="600" fill="#5b3fb0">Contacts + T1</text><text x="674" y="80" text-anchor="middle" font-family="ui-monospace, 'SF Mono', 'Cascadia Code', Menlo, Consolas, monospace" font-size="11" fill="#616b72">who touches / swaps</text><rect x="778" y="40" width="172" height="52" rx="10" fill="#efeafb" stroke="#7c5cd6" stroke-width="1.6"/><text x="864" y="63" text-anchor="middle" font-size="15" font-weight="600" fill="#5b3fb0">Aggregate</text><text x="864" y="80" text-anchor="middle" font-family="ui-monospace, 'SF Mono', 'Cascadia Code', Menlo, Consolas, monospace" font-size="11" fill="#616b72">pooled tidy tables</text><rect x="271" y="138" width="236" height="52" rx="10" fill="#fbf0db" stroke="#c07a12" stroke-width="1.6"/><text x="389" y="161" text-anchor="middle" font-size="15" font-weight="600" fill="#8c580a">Correction</text><text x="389" y="178" text-anchor="middle" font-family="ui-monospace, 'SF Mono', 'Cascadia Code', Menlo, Consolas, monospace" font-size="11" fill="#616b72">a person, where it is wrong</text></svg>
