<?xml version="1.0" encoding="UTF-8"?>
<svg xmlns="http://www.w3.org/2000/svg" viewBox="0 0 968 236" width="968" height="236" font-family="system-ui, -apple-system, 'Segoe UI', Roboto, Helvetica, Arial, sans-serif" role="img" aria-label="Nucleus maps become atoms, then candidates, then a solve, then tracked nuclei; correction feeds back into the solve."><defs><marker id="ar" markerWidth="8" markerHeight="8" refX="5.6" refY="3" orient="auto"><path d="M0,0 L6,3 L0,6 Z" fill="#7a848b"/></marker><marker id="arf" markerWidth="8" markerHeight="8" refX="5.6" refY="3" orient="auto"><path d="M0,0 L6,3 L0,6 Z" fill="#363c42"/></marker></defs><rect x="1" y="1" width="966" height="234" rx="14" fill="#17191c" stroke="#2b3036" stroke-width="1"/><line x1="183.0" y1="66.0" x2="215.0" y2="66.0" stroke="#7a848b" stroke-width="1.6" marker-end="url(#ar)"/><line x1="373.0" y1="66.0" x2="405.0" y2="66.0" stroke="#7a848b" stroke-width="1.6" marker-end="url(#ar)"/><line x1="563.0" y1="66.0" x2="595.0" y2="66.0" stroke="#7a848b" stroke-width="1.6" marker-end="url(#ar)"/><line x1="753.0" y1="66.0" x2="785.0" y2="66.0" stroke="#7a848b" stroke-width="1.6" marker-end="url(#ar)"/><line x1="795.0" y1="89.7" x2="648.0" y2="140.3" stroke="#7a848b" stroke-width="1.6" marker-end="url(#ar)"/><line x1="599.3" y1="143.0" x2="653.7" y2="87.0" stroke="#7a848b" stroke-width="1.6" stroke-dasharray="5 4" marker-end="url(#ar)"/><rect x="597.5" y="106.0" width="58" height="16" rx="4" fill="#17191c"/><text x="626.5" y="118.0" text-anchor="middle" font-family="ui-monospace, 'SF Mono', 'Cascadia Code', Menlo, Consolas, monospace" font-size="10.5" fill="#99a2a9">re-solve</text><rect x="18" y="40" width="172" height="52" rx="10" fill="#16273f" stroke="#6ea0ff" stroke-width="1.6"/><text x="104" y="63" text-anchor="middle" font-size="15" font-weight="600" fill="#accaff">Nucleus maps</text><text x="104" y="80" text-anchor="middle" font-family="ui-monospace, 'SF Mono', 'Cascadia Code', Menlo, Consolas, monospace" font-size="11" fill="#99a2a9">foreground + contour</text><rect x="208" y="40" width="172" height="52" rx="10" fill="#0e2d2a" stroke="#2dd4bf" stroke-width="1.6"/><text x="294" y="63" text-anchor="middle" font-size="15" font-weight="600" fill="#82ebde">Atoms</text><text x="294" y="80" text-anchor="middle" font-family="ui-monospace, 'SF Mono', 'Cascadia Code', Menlo, Consolas, monospace" font-size="11" fill="#99a2a9">fragments &lt; nucleus</text><rect x="398" y="40" width="172" height="52" rx="10" fill="#0e2d2a" stroke="#2dd4bf" stroke-width="1.6"/><text x="484" y="63" text-anchor="middle" font-size="15" font-weight="600" fill="#82ebde">Candidates</text><text x="484" y="80" text-anchor="middle" font-family="ui-monospace, 'SF Mono', 'Cascadia Code', Menlo, Consolas, monospace" font-size="11" fill="#99a2a9">nested merges</text><rect x="588" y="40" width="172" height="52" rx="10" fill="#0e2d2a" stroke="#2dd4bf" stroke-width="1.6"/><text x="674" y="63" text-anchor="middle" font-size="15" font-weight="600" fill="#82ebde">Solve</text><text x="674" y="80" text-anchor="middle" font-family="ui-monospace, 'SF Mono', 'Cascadia Code', Menlo, Consolas, monospace" font-size="11" fill="#99a2a9">ILP: consistent in time</text><rect x="778" y="40" width="172" height="52" rx="10" fill="#0e2d2a" stroke="#2dd4bf" stroke-width="1.6"/><text x="864" y="63" text-anchor="middle" font-size="15" font-weight="600" fill="#82ebde">Tracked nuclei</text><text x="864" y="80" text-anchor="middle" font-family="ui-monospace, 'SF Mono', 'Cascadia Code', Menlo, Consolas, monospace" font-size="11" fill="#99a2a9">outline + identity</text><rect x="453" y="138" width="252" height="52" rx="10" fill="#2d2413" stroke="#e0a94e" stroke-width="1.6"/><text x="579" y="161" text-anchor="middle" font-size="15" font-weight="600" fill="#f1cd8c">Correction</text><text x="579" y="178" text-anchor="middle" font-family="ui-monospace, 'SF Mono', 'Cascadia Code', Menlo, Consolas, monospace" font-size="11" fill="#99a2a9">validate · candidates · anchor</text></svg>
