<?xml version="1.0" encoding="UTF-8"?>
<svg xmlns="http://www.w3.org/2000/svg" viewBox="0 0 968 226" width="968" height="226" font-family="system-ui, -apple-system, 'Segoe UI', Roboto, Helvetica, Arial, sans-serif" role="img" aria-label="Tracked labels give a contact graph and T1 events, written per position to an HDF5 file, then pooled by the aggregator into tidy CSVs."><defs><marker id="ar" markerWidth="8" markerHeight="8" refX="5.6" refY="3" orient="auto"><path d="M0,0 L6,3 L0,6 Z" fill="#7a848b"/></marker><marker id="arf" markerWidth="8" markerHeight="8" refX="5.6" refY="3" orient="auto"><path d="M0,0 L6,3 L0,6 Z" fill="#363c42"/></marker></defs><rect x="1" y="1" width="966" height="224" rx="14" fill="#17191c" stroke="#2b3036" stroke-width="1"/><line x1="183.2" y1="94.6" x2="214.8" y2="86.4" stroke="#7a848b" stroke-width="1.6" marker-end="url(#ar)"/><line x1="183.2" y1="135.4" x2="214.8" y2="143.6" stroke="#7a848b" stroke-width="1.6" marker-end="url(#ar)"/><line x1="373.2" y1="86.4" x2="397.8" y2="92.8" stroke="#7a848b" stroke-width="1.6" marker-end="url(#ar)"/><line x1="373.2" y1="143.6" x2="397.8" y2="137.2" stroke="#7a848b" stroke-width="1.6" marker-end="url(#ar)"/><line x1="570.0" y1="115.0" x2="595.0" y2="115.0" stroke="#7a848b" stroke-width="1.6" marker-end="url(#ar)"/><line x1="753.0" y1="115.0" x2="785.0" y2="115.0" stroke="#7a848b" stroke-width="1.6" marker-end="url(#ar)"/><rect x="18" y="89" width="172" height="52" rx="10" fill="#0e2d2a" stroke="#2dd4bf" stroke-width="1.6"/><text x="104" y="112" text-anchor="middle" font-size="15" font-weight="600" fill="#82ebde">Tracked labels</text><text x="104" y="129" text-anchor="middle" font-family="ui-monospace, 'SF Mono', 'Cascadia Code', Menlo, Consolas, monospace" font-size="11" fill="#99a2a9">cells + nuclei</text><rect x="208" y="40" width="172" height="52" rx="10" fill="#221b36" stroke="#b49cf0" stroke-width="1.6"/><text x="294" y="63" text-anchor="middle" font-size="15" font-weight="600" fill="#cebdf8">Contact graph</text><text x="294" y="80" text-anchor="middle" font-family="ui-monospace, 'SF Mono', 'Cascadia Code', Menlo, Consolas, monospace" font-size="11" fill="#99a2a9">who touches whom</text><rect x="208" y="138" width="172" height="52" rx="10" fill="#221b36" stroke="#b49cf0" stroke-width="1.6"/><text x="294" y="161" text-anchor="middle" font-size="15" font-weight="600" fill="#cebdf8">T1 events</text><text x="294" y="178" text-anchor="middle" font-family="ui-monospace, 'SF Mono', 'Cascadia Code', Menlo, Consolas, monospace" font-size="11" fill="#99a2a9">neighbour swaps</text><rect x="391" y="89" width="186" height="52" rx="10" fill="#1c2024" stroke="#7f8890" stroke-width="1.6"/><text x="484" y="112" text-anchor="middle" font-size="15" font-weight="600" fill="#a2abb2">contact_analysis.h5</text><text x="484" y="129" text-anchor="middle" font-family="ui-monospace, 'SF Mono', 'Cascadia Code', Menlo, Consolas, monospace" font-size="11" fill="#99a2a9">per position</text><rect x="588" y="89" width="172" height="52" rx="10" fill="#221b36" stroke="#b49cf0" stroke-width="1.6"/><text x="674" y="112" text-anchor="middle" font-size="15" font-weight="600" fill="#cebdf8">Aggregator</text><text x="674" y="129" text-anchor="middle" font-family="ui-monospace, 'SF Mono', 'Cascadia Code', Menlo, Consolas, monospace" font-size="11" fill="#99a2a9">pool across positions</text><rect x="778" y="89" width="172" height="52" rx="10" fill="#1c2024" stroke="#7f8890" stroke-width="1.6"/><text x="864" y="112" text-anchor="middle" font-size="15" font-weight="600" fill="#a2abb2">Tidy CSVs</text><text x="864" y="129" text-anchor="middle" font-family="ui-monospace, 'SF Mono', 'Cascadia Code', Menlo, Consolas, monospace" font-size="11" fill="#99a2a9">one per quantity</text></svg>
