<?xml version="1.0" encoding="UTF-8"?>
<svg xmlns="http://www.w3.org/2000/svg" viewBox="0 0 778 286" width="778" height="286" font-family="system-ui, -apple-system, 'Segoe UI', Roboto, Helvetica, Arial, sans-serif" role="img" aria-label="Cell maps make a cost field; tracked nuclei are the seeds; a geodesic grow produces cell bodies, then correction."><defs><marker id="ar" markerWidth="8" markerHeight="8" refX="5.6" refY="3" orient="auto"><path d="M0,0 L6,3 L0,6 Z" fill="#8b959c"/></marker><marker id="arf" markerWidth="8" markerHeight="8" refX="5.6" refY="3" orient="auto"><path d="M0,0 L6,3 L0,6 Z" fill="#e0e6e8"/></marker></defs><rect x="1" y="1" width="776" height="284" rx="14" fill="#ffffff" stroke="#e4e9eb" stroke-width="1"/><line x1="183.0" y1="66.0" x2="215.0" y2="66.0" stroke="#8b959c" stroke-width="1.6" marker-end="url(#ar)"/><line x1="373.2" y1="86.4" x2="404.8" y2="94.6" stroke="#8b959c" stroke-width="1.6" marker-end="url(#ar)"/><line x1="373.2" y1="143.6" x2="404.8" y2="135.4" stroke="#8b959c" stroke-width="1.6" marker-end="url(#ar)"/><line x1="563.0" y1="115.0" x2="595.0" y2="115.0" stroke="#8b959c" stroke-width="1.6" marker-end="url(#ar)"/><line x1="655.7" y1="135.7" x2="597.3" y2="202.1" stroke="#8b959c" stroke-width="1.6" marker-end="url(#ar)"/><rect x="18" y="40" width="172" height="52" rx="10" fill="#e9f0fe" stroke="#2f6df0" stroke-width="1.6"/><text x="104" y="63" text-anchor="middle" font-size="15" font-weight="600" fill="#1c4fbf">Cell maps</text><text x="104" y="80" text-anchor="middle" font-family="ui-monospace, 'SF Mono', 'Cascadia Code', Menlo, Consolas, monospace" font-size="11" fill="#616b72">foreground + contour</text><rect x="208" y="40" width="172" height="52" rx="10" fill="#e9f4e9" stroke="#3f9142" stroke-width="1.6"/><text x="294" y="63" text-anchor="middle" font-size="15" font-weight="600" fill="#2f6f31">Cost field</text><text x="294" y="80" text-anchor="middle" font-family="ui-monospace, 'SF Mono', 'Cascadia Code', Menlo, Consolas, monospace" font-size="11" fill="#616b72">ridges cost to cross</text><rect x="208" y="138" width="172" height="52" rx="10" fill="#e2f4f1" stroke="#0d9488" stroke-width="1.6"/><text x="294" y="161" text-anchor="middle" font-size="15" font-weight="600" fill="#0a6f66">Tracked nuclei</text><text x="294" y="178" text-anchor="middle" font-family="ui-monospace, 'SF Mono', 'Cascadia Code', Menlo, Consolas, monospace" font-size="11" fill="#616b72">the seeds</text><rect x="398" y="89" width="172" height="52" rx="10" fill="#e9f4e9" stroke="#3f9142" stroke-width="1.6"/><text x="484" y="112" text-anchor="middle" font-size="15" font-weight="600" fill="#2f6f31">Geodesic grow</text><text x="484" y="129" text-anchor="middle" font-family="ui-monospace, 'SF Mono', 'Cascadia Code', Menlo, Consolas, monospace" font-size="11" fill="#616b72">nearest nucleus wins</text><rect x="588" y="89" width="172" height="52" rx="10" fill="#e9f4e9" stroke="#3f9142" stroke-width="1.6"/><text x="674" y="112" text-anchor="middle" font-size="15" font-weight="600" fill="#2f6f31">Cell bodies</text><text x="674" y="129" text-anchor="middle" font-family="ui-monospace, 'SF Mono', 'Cascadia Code', Menlo, Consolas, monospace" font-size="11" fill="#616b72">one per nucleus</text><rect x="472" y="197" width="214" height="52" rx="10" fill="#fbf0db" stroke="#c07a12" stroke-width="1.6"/><text x="579" y="220" text-anchor="middle" font-size="15" font-weight="600" fill="#8c580a">Correction</text><text x="579" y="237" text-anchor="middle" font-family="ui-monospace, 'SF Mono', 'Cascadia Code', Menlo, Consolas, monospace" font-size="11" fill="#616b72">EpiCure · fill · clean</text></svg>
