<?xml version="1.0" encoding="UTF-8"?>
<svg xmlns="http://www.w3.org/2000/svg" viewBox="0 0 778 324" width="778" height="324" font-family="system-ui, -apple-system, 'Segoe UI', Roboto, Helvetica, Arial, sans-serif" role="img" aria-label="One frame through Cellpose into a brightness output and a direction output, which become the foreground map and the contour map."><defs><marker id="ar" markerWidth="8" markerHeight="8" refX="5.6" refY="3" orient="auto"><path d="M0,0 L6,3 L0,6 Z" fill="#7a848b"/></marker><marker id="arf" markerWidth="8" markerHeight="8" refX="5.6" refY="3" orient="auto"><path d="M0,0 L6,3 L0,6 Z" fill="#363c42"/></marker></defs><rect x="1" y="1" width="776" height="322" rx="14" fill="#17191c" stroke="#2b3036" stroke-width="1"/><line x1="183.0" y1="164.0" x2="215.0" y2="164.0" stroke="#7a848b" stroke-width="1.6" marker-end="url(#ar)"/><line x1="338.2" y1="141.2" x2="439.8" y2="88.8" stroke="#7a848b" stroke-width="1.6" marker-end="url(#ar)"/><line x1="338.2" y1="186.8" x2="439.8" y2="239.2" stroke="#7a848b" stroke-width="1.6" marker-end="url(#ar)"/><line x1="563.0" y1="66.0" x2="595.0" y2="66.0" stroke="#7a848b" stroke-width="1.6" marker-end="url(#ar)"/><line x1="563.0" y1="262.0" x2="595.0" y2="262.0" stroke="#7a848b" stroke-width="1.6" marker-end="url(#ar)"/><rect x="18" y="138" width="172" height="52" rx="10" fill="#1c2024" stroke="#7f8890" stroke-width="1.6"/><text x="104" y="161" text-anchor="middle" font-size="15" font-weight="600" fill="#a2abb2">Raw frame</text><text x="104" y="178" text-anchor="middle" font-family="ui-monospace, 'SF Mono', 'Cascadia Code', Menlo, Consolas, monospace" font-size="11" fill="#99a2a9">one channel</text><rect x="208" y="138" width="172" height="52" rx="10" fill="#16273f" stroke="#6ea0ff" stroke-width="1.6"/><text x="294" y="161" text-anchor="middle" font-size="15" font-weight="600" fill="#accaff">Cellpose</text><text x="294" y="178" text-anchor="middle" font-family="ui-monospace, 'SF Mono', 'Cascadia Code', Menlo, Consolas, monospace" font-size="11" fill="#99a2a9">reads one image</text><rect x="398" y="40" width="172" height="52" rx="10" fill="#1c2024" stroke="#7f8890" stroke-width="1.6"/><text x="484" y="63" text-anchor="middle" font-size="15" font-weight="600" fill="#a2abb2">Brightness</text><text x="484" y="80" text-anchor="middle" font-family="ui-monospace, 'SF Mono', 'Cascadia Code', Menlo, Consolas, monospace" font-size="11" fill="#99a2a9">cell-like?</text><rect x="398" y="236" width="172" height="52" rx="10" fill="#1c2024" stroke="#7f8890" stroke-width="1.6"/><text x="484" y="259" text-anchor="middle" font-size="15" font-weight="600" fill="#a2abb2">Direction</text><text x="484" y="276" text-anchor="middle" font-family="ui-monospace, 'SF Mono', 'Cascadia Code', Menlo, Consolas, monospace" font-size="11" fill="#99a2a9">toward the centre</text><rect x="588" y="40" width="172" height="52" rx="10" fill="#16273f" stroke="#6ea0ff" stroke-width="1.6"/><text x="674" y="63" text-anchor="middle" font-size="15" font-weight="600" fill="#accaff">Foreground map</text><text x="674" y="80" text-anchor="middle" font-family="ui-monospace, 'SF Mono', 'Cascadia Code', Menlo, Consolas, monospace" font-size="11" fill="#99a2a9">where cells are</text><rect x="588" y="236" width="172" height="52" rx="10" fill="#16273f" stroke="#6ea0ff" stroke-width="1.6"/><text x="674" y="259" text-anchor="middle" font-size="15" font-weight="600" fill="#accaff">Contour map</text><text x="674" y="276" text-anchor="middle" font-family="ui-monospace, 'SF Mono', 'Cascadia Code', Menlo, Consolas, monospace" font-size="11" fill="#99a2a9">where boundaries run</text></svg>
