<?xml version="1.0" encoding="UTF-8"?>
<svg xmlns="http://www.w3.org/2000/svg" viewBox="0 0 1002 320" width="1002" height="320" font-family="system-ui, -apple-system, 'Segoe UI', Roboto, Helvetica, Arial, sans-serif" role="img" aria-label="Which ingredients this distribution ships, on the shared ITASC board."><defs><marker id="ar" markerWidth="8" markerHeight="8" refX="5.6" refY="3" orient="auto"><path d="M0,0 L6,3 L0,6 Z" fill="#8b959c"/></marker><marker id="arf" markerWidth="8" markerHeight="8" refX="5.6" refY="3" orient="auto"><path d="M0,0 L6,3 L0,6 Z" fill="#e0e6e8"/></marker></defs><rect x="1" y="1" width="1000" height="318" rx="14" fill="#ffffff" stroke="#e4e9eb" stroke-width="1"/><line x1="189.0" y1="54.0" x2="231.0" y2="54.0" stroke="#e0e6e8" stroke-width="1.6" marker-end="url(#arf)"/><line x1="385.0" y1="54.0" x2="423.0" y2="54.0" stroke="#e0e6e8" stroke-width="1.6" marker-end="url(#arf)"/><line x1="577.0" y1="54.0" x2="629.0" y2="54.0" stroke="#e0e6e8" stroke-width="1.6" marker-end="url(#arf)"/><line x1="783.0" y1="54.0" x2="813.0" y2="54.0" stroke="#8b959c" stroke-width="1.6" marker-end="url(#ar)"/><line x1="385.0" y1="226.0" x2="423.0" y2="226.0" stroke="#e0e6e8" stroke-width="1.6" marker-end="url(#arf)"/><line x1="308.0" y1="74.0" x2="308.0" y2="120.0" stroke="#e0e6e8" stroke-width="1.6" marker-end="url(#arf)"/><line x1="361.9" y1="78.1" x2="446.1" y2="115.9" stroke="#e0e6e8" stroke-width="1.6" marker-end="url(#arf)"/><line x1="500.0" y1="74.0" x2="500.0" y2="120.0" stroke="#e0e6e8" stroke-width="1.6" marker-end="url(#arf)"/><line x1="500.0" y1="206.0" x2="500.0" y2="160.0" stroke="#e0e6e8" stroke-width="1.6" marker-end="url(#arf)"/><rect x="28" y="27" width="168" height="54" rx="10" fill="none" stroke="#c7ced2" stroke-width="1.6" stroke-dasharray="3 4"/><text x="112" y="51" text-anchor="middle" font-size="15" font-weight="600" fill="#a9b1b8">Cellpose → maps</text><text x="112" y="68" text-anchor="middle" font-family="ui-monospace, 'SF Mono', 'Cascadia Code', Menlo, Consolas, monospace" font-size="11" fill="#a9b1b8">foreground + contour</text><rect x="224" y="27" width="168" height="54" rx="10" fill="none" stroke="#c7ced2" stroke-width="1.6" stroke-dasharray="3 4"/><text x="308" y="51" text-anchor="middle" font-size="15" font-weight="600" fill="#a9b1b8">Ultrack</text><text x="308" y="68" text-anchor="middle" font-family="ui-monospace, 'SF Mono', 'Cascadia Code', Menlo, Consolas, monospace" font-size="11" fill="#a9b1b8">segment + track</text><rect x="416" y="27" width="168" height="54" rx="10" fill="none" stroke="#c7ced2" stroke-width="1.6" stroke-dasharray="3 4"/><text x="500" y="51" text-anchor="middle" font-size="15" font-weight="600" fill="#a9b1b8">Cell bodies</text><text x="500" y="68" text-anchor="middle" font-family="ui-monospace, 'SF Mono', 'Cascadia Code', Menlo, Consolas, monospace" font-size="11" fill="#a9b1b8">grow from nucleus</text><rect x="622" y="27" width="168" height="54" rx="10" fill="#efeafb" stroke="#7c5cd6" stroke-width="1.6"/><text x="706" y="51" text-anchor="middle" font-size="15" font-weight="600" fill="#5b3fb0">Contact analysis</text><text x="706" y="68" text-anchor="middle" font-family="ui-monospace, 'SF Mono', 'Cascadia Code', Menlo, Consolas, monospace" font-size="11" fill="#616b72">edges · T1 events</text><rect x="806" y="27" width="168" height="54" rx="10" fill="#efeafb" stroke="#7c5cd6" stroke-width="1.6"/><text x="890" y="51" text-anchor="middle" font-size="15" font-weight="600" fill="#5b3fb0">Aggregator</text><text x="890" y="68" text-anchor="middle" font-family="ui-monospace, 'SF Mono', 'Cascadia Code', Menlo, Consolas, monospace" font-size="11" fill="#616b72">pool → CSV</text><rect x="224" y="113" width="168" height="54" rx="10" fill="none" stroke="#c7ced2" stroke-width="1.6" stroke-dasharray="3 4"/><text x="308" y="137" text-anchor="middle" font-size="15" font-weight="600" fill="#a9b1b8">Ultrack correction</text><text x="308" y="154" text-anchor="middle" font-family="ui-monospace, 'SF Mono', 'Cascadia Code', Menlo, Consolas, monospace" font-size="11" fill="#a9b1b8">candidates · validate</text><rect x="416" y="113" width="168" height="54" rx="10" fill="none" stroke="#c7ced2" stroke-width="1.6" stroke-dasharray="3 4"/><text x="500" y="137" text-anchor="middle" font-size="15" font-weight="600" fill="#a9b1b8">EpiCure editing</text><text x="500" y="154" text-anchor="middle" font-family="ui-monospace, 'SF Mono', 'Cascadia Code', Menlo, Consolas, monospace" font-size="11" fill="#a9b1b8">hand corrections</text><rect x="224" y="199" width="168" height="54" rx="10" fill="none" stroke="#c7ced2" stroke-width="1.6" stroke-dasharray="3 4"/><text x="308" y="223" text-anchor="middle" font-size="15" font-weight="600" fill="#a9b1b8">Cellpose → masks</text><text x="308" y="240" text-anchor="middle" font-family="ui-monospace, 'SF Mono', 'Cascadia Code', Menlo, Consolas, monospace" font-size="11" fill="#a9b1b8">instance masks</text><rect x="416" y="199" width="168" height="54" rx="10" fill="none" stroke="#c7ced2" stroke-width="1.6" stroke-dasharray="3 4"/><text x="500" y="223" text-anchor="middle" font-size="15" font-weight="600" fill="#a9b1b8">LapTrack</text><text x="500" y="240" text-anchor="middle" font-family="ui-monospace, 'SF Mono', 'Cascadia Code', Menlo, Consolas, monospace" font-size="11" fill="#a9b1b8">link over time</text><rect x="41" y="271" width="920" height="38" rx="10" fill="#e9edef" stroke="#64707a" stroke-width="1.6"/><text x="501" y="287" text-anchor="middle" font-size="15" font-weight="600" fill="#414b53">Core</text><text x="501" y="304" text-anchor="middle" font-family="ui-monospace, 'SF Mono', 'Cascadia Code', Menlo, Consolas, monospace" font-size="11" fill="#616b72">project folder + napari UI</text></svg>
