<?xml version="1.0" encoding="UTF-8"?>
<svg xmlns="http://www.w3.org/2000/svg" viewBox="0 0 778 324" width="778" height="324" font-family="system-ui, -apple-system, 'Segoe UI', Roboto, Helvetica, Arial, sans-serif" role="img" aria-label="One frame through Cellpose into a brightness output and a direction output, which become the foreground map and the contour map."><defs><marker id="ar" markerWidth="8" markerHeight="8" refX="5.6" refY="3" orient="auto"><path d="M0,0 L6,3 L0,6 Z" fill="#8b959c"/></marker><marker id="arf" markerWidth="8" markerHeight="8" refX="5.6" refY="3" orient="auto"><path d="M0,0 L6,3 L0,6 Z" fill="#e0e6e8"/></marker></defs><rect x="1" y="1" width="776" height="322" rx="14" fill="#ffffff" stroke="#e4e9eb" stroke-width="1"/><line x1="183.0" y1="164.0" x2="215.0" y2="164.0" stroke="#8b959c" stroke-width="1.6" marker-end="url(#ar)"/><line x1="338.2" y1="141.2" x2="439.8" y2="88.8" stroke="#8b959c" stroke-width="1.6" marker-end="url(#ar)"/><line x1="338.2" y1="186.8" x2="439.8" y2="239.2" stroke="#8b959c" stroke-width="1.6" marker-end="url(#ar)"/><line x1="563.0" y1="66.0" x2="595.0" y2="66.0" stroke="#8b959c" stroke-width="1.6" marker-end="url(#ar)"/><line x1="563.0" y1="262.0" x2="595.0" y2="262.0" stroke="#8b959c" stroke-width="1.6" marker-end="url(#ar)"/><rect x="18" y="138" width="172" height="52" rx="10" fill="#f2f4f6" stroke="#98a2ab" stroke-width="1.6"/><text x="104" y="161" text-anchor="middle" font-size="15" font-weight="600" fill="#59636b">Raw frame</text><text x="104" y="178" text-anchor="middle" font-family="ui-monospace, 'SF Mono', 'Cascadia Code', Menlo, Consolas, monospace" font-size="11" fill="#616b72">one channel</text><rect x="208" y="138" width="172" height="52" rx="10" fill="#e9f0fe" stroke="#2f6df0" stroke-width="1.6"/><text x="294" y="161" text-anchor="middle" font-size="15" font-weight="600" fill="#1c4fbf">Cellpose</text><text x="294" y="178" text-anchor="middle" font-family="ui-monospace, 'SF Mono', 'Cascadia Code', Menlo, Consolas, monospace" font-size="11" fill="#616b72">reads one image</text><rect x="398" y="40" width="172" height="52" rx="10" fill="#f2f4f6" stroke="#98a2ab" stroke-width="1.6"/><text x="484" y="63" text-anchor="middle" font-size="15" font-weight="600" fill="#59636b">Brightness</text><text x="484" y="80" text-anchor="middle" font-family="ui-monospace, 'SF Mono', 'Cascadia Code', Menlo, Consolas, monospace" font-size="11" fill="#616b72">cell-like?</text><rect x="398" y="236" width="172" height="52" rx="10" fill="#f2f4f6" stroke="#98a2ab" stroke-width="1.6"/><text x="484" y="259" text-anchor="middle" font-size="15" font-weight="600" fill="#59636b">Direction</text><text x="484" y="276" text-anchor="middle" font-family="ui-monospace, 'SF Mono', 'Cascadia Code', Menlo, Consolas, monospace" font-size="11" fill="#616b72">toward the center</text><rect x="588" y="40" width="172" height="52" rx="10" fill="#e9f0fe" stroke="#2f6df0" stroke-width="1.6"/><text x="674" y="63" text-anchor="middle" font-size="15" font-weight="600" fill="#1c4fbf">Foreground map</text><text x="674" y="80" text-anchor="middle" font-family="ui-monospace, 'SF Mono', 'Cascadia Code', Menlo, Consolas, monospace" font-size="11" fill="#616b72">where cells are</text><rect x="588" y="236" width="172" height="52" rx="10" fill="#e9f0fe" stroke="#2f6df0" stroke-width="1.6"/><text x="674" y="259" text-anchor="middle" font-size="15" font-weight="600" fill="#1c4fbf">Contour map</text><text x="674" y="276" text-anchor="middle" font-family="ui-monospace, 'SF Mono', 'Cascadia Code', Menlo, Consolas, monospace" font-size="11" fill="#616b72">where boundaries run</text></svg>
