<?xml version="1.0" encoding="utf-8" standalone="no"?>
<!DOCTYPE svg PUBLIC "-//W3C//DTD SVG 1.1//EN"
  "http://www.w3.org/Graphics/SVG/1.1/DTD/svg11.dtd">
<svg xmlns:xlink="http://www.w3.org/1999/xlink" width="230.4pt" height="187.2pt" viewBox="0 0 230.4 187.2" xmlns="http://www.w3.org/2000/svg" version="1.1">
 <metadata>
  <rdf:RDF xmlns:dc="http://purl.org/dc/elements/1.1/" xmlns:cc="http://creativecommons.org/ns#" xmlns:rdf="http://www.w3.org/1999/02/22-rdf-syntax-ns#">
   <cc:Work>
    <dc:type rdf:resource="http://purl.org/dc/dcmitype/StillImage"/>
    <dc:date>2026-06-09T07:46:05.228719</dc:date>
    <dc:format>image/svg+xml</dc:format>
    <dc:creator>
     <cc:Agent>
      <dc:title>Matplotlib v3.10.9, https://matplotlib.org/</dc:title>
     </cc:Agent>
    </dc:creator>
   </cc:Work>
  </rdf:RDF>
 </metadata>
 <defs>
  <style type="text/css">*{stroke-linejoin: round; stroke-linecap: butt}</style>
 </defs>
 <g id="figure_1">
  <g id="patch_1">
   <path d="M 0 187.2 
L 230.4 187.2 
L 230.4 0 
L 0 0 
z
" style="fill: #ffffff"/>
  </g>
  <g id="axes_1">
   <g id="patch_2">
    <path d="M 40.43 145.96 
L 219.6 145.96 
L 219.6 10.8 
L 40.43 10.8 
z
" style="fill: #ffffff"/>
   </g>
   <g id="matplotlib.axis_1">
    <g id="xtick_1">
     <g id="line2d_1">
      <path d="M 74.372143 145.96 
L 74.372143 10.8 
" clip-path="url(#pe1446883f4)" style="fill: none; stroke-dasharray: 0.8,1.32; stroke-dashoffset: 0; stroke: #b0b0b0; stroke-opacity: 0.6; stroke-width: 0.8"/>
     </g>
     <g id="line2d_2">
      <defs>
       <path id="mcedd18aba6" d="M 0 0 
L 0 3.5 
" style="stroke: #000000; stroke-width: 0.8"/>
      </defs>
      <g>
       <use xlink:href="#mcedd18aba6" x="74.372143" y="145.96" style="stroke: #000000; stroke-width: 0.8"/>
      </g>
     </g>
     <g id="text_1">
      <text style="font-size: 10px; font-family: 'DejaVu Sans', 'Bitstream Vera Sans', 'Computer Modern Sans Serif', 'Lucida Grande', 'Verdana', 'Geneva', 'Lucid', 'Arial', 'Helvetica', 'Avant Garde', sans-serif; text-anchor: middle" x="74.372143" y="160.558438" transform="rotate(-0 74.372143 160.558438)">−20</text>
     </g>
    </g>
    <g id="xtick_2">
     <g id="line2d_3">
      <path d="M 130.015 145.96 
L 130.015 10.8 
" clip-path="url(#pe1446883f4)" style="fill: none; stroke-dasharray: 0.8,1.32; stroke-dashoffset: 0; stroke: #b0b0b0; stroke-opacity: 0.6; stroke-width: 0.8"/>
     </g>
     <g id="line2d_4">
      <g>
       <use xlink:href="#mcedd18aba6" x="130.015" y="145.96" style="stroke: #000000; stroke-width: 0.8"/>
      </g>
     </g>
     <g id="text_2">
      <text style="font-size: 10px; font-family: 'DejaVu Sans', 'Bitstream Vera Sans', 'Computer Modern Sans Serif', 'Lucida Grande', 'Verdana', 'Geneva', 'Lucid', 'Arial', 'Helvetica', 'Avant Garde', sans-serif; text-anchor: middle" x="130.015" y="160.558438" transform="rotate(-0 130.015 160.558438)">0</text>
     </g>
    </g>
    <g id="xtick_3">
     <g id="line2d_5">
      <path d="M 185.657857 145.96 
L 185.657857 10.8 
" clip-path="url(#pe1446883f4)" style="fill: none; stroke-dasharray: 0.8,1.32; stroke-dashoffset: 0; stroke: #b0b0b0; stroke-opacity: 0.6; stroke-width: 0.8"/>
     </g>
     <g id="line2d_6">
      <g>
       <use xlink:href="#mcedd18aba6" x="185.657857" y="145.96" style="stroke: #000000; stroke-width: 0.8"/>
      </g>
     </g>
     <g id="text_3">
      <text style="font-size: 10px; font-family: 'DejaVu Sans', 'Bitstream Vera Sans', 'Computer Modern Sans Serif', 'Lucida Grande', 'Verdana', 'Geneva', 'Lucid', 'Arial', 'Helvetica', 'Avant Garde', sans-serif; text-anchor: middle" x="185.657857" y="160.558438" transform="rotate(-0 185.657857 160.558438)">20</text>
     </g>
    </g>
    <g id="text_4">
     <text style="font-size: 9px; font-family: 'DejaVu Sans', 'Bitstream Vera Sans', 'Computer Modern Sans Serif', 'Lucida Grande', 'Verdana', 'Geneva', 'Lucid', 'Arial', 'Helvetica', 'Avant Garde', sans-serif; text-anchor: middle" x="130.015" y="173.476719" transform="rotate(-0 130.015 173.476719)">Signed junction length L (µm)</text>
    </g>
   </g>
   <g id="matplotlib.axis_2">
    <g id="ytick_1">
     <g id="line2d_7">
      <path d="M 40.43 134.005775 
L 219.6 134.005775 
" clip-path="url(#pe1446883f4)" style="fill: none; stroke-dasharray: 0.8,1.32; stroke-dashoffset: 0; stroke: #b0b0b0; stroke-opacity: 0.6; stroke-width: 0.8"/>
     </g>
     <g id="line2d_8">
      <defs>
       <path id="mdcdc01605b" d="M 0 0 
L -3.5 0 
" style="stroke: #000000; stroke-width: 0.8"/>
      </defs>
      <g>
       <use xlink:href="#mdcdc01605b" x="40.43" y="134.005775" style="stroke: #000000; stroke-width: 0.8"/>
      </g>
     </g>
     <g id="text_5">
      <text style="font-size: 10px; font-family: 'DejaVu Sans', 'Bitstream Vera Sans', 'Computer Modern Sans Serif', 'Lucida Grande', 'Verdana', 'Geneva', 'Lucid', 'Arial', 'Helvetica', 'Avant Garde', sans-serif; text-anchor: end" x="33.43" y="137.804994" transform="rotate(-0 33.43 137.804994)">4</text>
     </g>
    </g>
    <g id="ytick_2">
     <g id="line2d_9">
      <path d="M 40.43 109.043876 
L 219.6 109.043876 
" clip-path="url(#pe1446883f4)" style="fill: none; stroke-dasharray: 0.8,1.32; stroke-dashoffset: 0; stroke: #b0b0b0; stroke-opacity: 0.6; stroke-width: 0.8"/>
     </g>
     <g id="line2d_10">
      <g>
       <use xlink:href="#mdcdc01605b" x="40.43" y="109.043876" style="stroke: #000000; stroke-width: 0.8"/>
      </g>
     </g>
     <g id="text_6">
      <text style="font-size: 10px; font-family: 'DejaVu Sans', 'Bitstream Vera Sans', 'Computer Modern Sans Serif', 'Lucida Grande', 'Verdana', 'Geneva', 'Lucid', 'Arial', 'Helvetica', 'Avant Garde', sans-serif; text-anchor: end" x="33.43" y="112.843095" transform="rotate(-0 33.43 112.843095)">5</text>
     </g>
    </g>
    <g id="ytick_3">
     <g id="line2d_11">
      <path d="M 40.43 84.081977 
L 219.6 84.081977 
" clip-path="url(#pe1446883f4)" style="fill: none; stroke-dasharray: 0.8,1.32; stroke-dashoffset: 0; stroke: #b0b0b0; stroke-opacity: 0.6; stroke-width: 0.8"/>
     </g>
     <g id="line2d_12">
      <g>
       <use xlink:href="#mdcdc01605b" x="40.43" y="84.081977" style="stroke: #000000; stroke-width: 0.8"/>
      </g>
     </g>
     <g id="text_7">
      <text style="font-size: 10px; font-family: 'DejaVu Sans', 'Bitstream Vera Sans', 'Computer Modern Sans Serif', 'Lucida Grande', 'Verdana', 'Geneva', 'Lucid', 'Arial', 'Helvetica', 'Avant Garde', sans-serif; text-anchor: end" x="33.43" y="87.881196" transform="rotate(-0 33.43 87.881196)">6</text>
     </g>
    </g>
    <g id="ytick_4">
     <g id="line2d_13">
      <path d="M 40.43 59.120078 
L 219.6 59.120078 
" clip-path="url(#pe1446883f4)" style="fill: none; stroke-dasharray: 0.8,1.32; stroke-dashoffset: 0; stroke: #b0b0b0; stroke-opacity: 0.6; stroke-width: 0.8"/>
     </g>
     <g id="line2d_14">
      <g>
       <use xlink:href="#mdcdc01605b" x="40.43" y="59.120078" style="stroke: #000000; stroke-width: 0.8"/>
      </g>
     </g>
     <g id="text_8">
      <text style="font-size: 10px; font-family: 'DejaVu Sans', 'Bitstream Vera Sans', 'Computer Modern Sans Serif', 'Lucida Grande', 'Verdana', 'Geneva', 'Lucid', 'Arial', 'Helvetica', 'Avant Garde', sans-serif; text-anchor: end" x="33.43" y="62.919297" transform="rotate(-0 33.43 62.919297)">7</text>
     </g>
    </g>
    <g id="ytick_5">
     <g id="line2d_15">
      <path d="M 40.43 34.158179 
L 219.6 34.158179 
" clip-path="url(#pe1446883f4)" style="fill: none; stroke-dasharray: 0.8,1.32; stroke-dashoffset: 0; stroke: #b0b0b0; stroke-opacity: 0.6; stroke-width: 0.8"/>
     </g>
     <g id="line2d_16">
      <g>
       <use xlink:href="#mdcdc01605b" x="40.43" y="34.158179" style="stroke: #000000; stroke-width: 0.8"/>
      </g>
     </g>
     <g id="text_9">
      <text style="font-size: 10px; font-family: 'DejaVu Sans', 'Bitstream Vera Sans', 'Computer Modern Sans Serif', 'Lucida Grande', 'Verdana', 'Geneva', 'Lucid', 'Arial', 'Helvetica', 'Avant Garde', sans-serif; text-anchor: end" x="33.43" y="37.957398" transform="rotate(-0 33.43 37.957398)">8</text>
     </g>
    </g>
    <g id="text_10">
     <!-- $-\log P(L) \approx U(L)/k_B T$ -->
     <g transform="translate(21.1775 122.48) rotate(-90)">
      <text>
       <tspan x="0" y="-0.15625" style="font-size: 9px; font-family: 'DejaVu Sans'">−</tspan>
       <tspan x="7.541016" y="-0.15625" style="font-size: 9px; font-family: 'DejaVu Sans'">l</tspan>
       <tspan x="10.041504" y="-0.15625" style="font-size: 9px; font-family: 'DejaVu Sans'">o</tspan>
       <tspan x="15.547852" y="-0.15625" style="font-size: 9px; font-family: 'DejaVu Sans'">g</tspan>
       <tspan x="28.149199" y="-0.15625" style="font-size: 9px; font-family: 'DejaVu Sans'">(</tspan>
       <tspan x="36.67459" y="-0.15625" style="font-size: 9px; font-family: 'DejaVu Sans'">)</tspan>
       <tspan x="41.939238" y="-0.15625" style="font-size: 9px; font-family: 'DejaVu Sans'">≈</tspan>
       <tspan x="57.821074" y="-0.15625" style="font-size: 9px; font-family: 'DejaVu Sans'">(</tspan>
       <tspan x="66.346465" y="-0.15625" style="font-size: 9px; font-family: 'DejaVu Sans'">)</tspan>
       <tspan x="69.857695" y="-0.15625" style="font-size: 9px; font-family: 'DejaVu Sans'">/</tspan>
       <tspan x="22.721953" y="-0.15625" style="font-style: oblique; font-size: 9px; font-family: 'DejaVu Sans'">P</tspan>
       <tspan x="31.66043" y="-0.15625" style="font-style: oblique; font-size: 9px; font-family: 'DejaVu Sans'">L</tspan>
       <tspan x="51.233672" y="-0.15625" style="font-style: oblique; font-size: 9px; font-family: 'DejaVu Sans'">U</tspan>
       <tspan x="61.332305" y="-0.15625" style="font-style: oblique; font-size: 9px; font-family: 'DejaVu Sans'">L</tspan>
       <tspan x="72.889922" y="-0.15625" style="font-style: oblique; font-size: 9px; font-family: 'DejaVu Sans'">k</tspan>
       <tspan x="82.669951" y="-0.15625" style="font-style: oblique; font-size: 9px; font-family: 'DejaVu Sans'">T</tspan>
       <tspan x="78.101836" y="1.320312" style="font-style: oblique; font-size: 6.3px; font-family: 'DejaVu Sans'">B</tspan>
      </text>
     </g>
    </g>
   </g>
   <g id="line2d_17">
    <path d="M 41.32585 61.669355 
L 43.11755 65.34686 
L 44.90925 71.790534 
L 46.70095 74.65714 
L 48.49265 78.971625 
L 50.28435 83.323817 
L 52.07605 84.462342 
L 53.86775 88.827249 
L 55.65945 87.735845 
L 57.45115 93.610856 
L 59.24285 97.482354 
L 61.03455 99.476742 
L 62.82625 103.454986 
L 64.61795 104.616214 
L 66.40965 107.869504 
L 68.20135 110.1863 
L 69.99305 114.356287 
L 71.78475 114.949235 
L 73.57645 117.487656 
L 75.36815 119.84945 
L 77.15985 122.479449 
L 78.95155 125.89269 
L 80.74325 126.013352 
L 82.53495 128.035664 
L 84.32665 129.59545 
L 86.11835 131.706515 
L 87.91005 132.426676 
L 89.70175 133.630714 
L 91.49345 134.969243 
L 93.28515 135.540716 
L 95.07685 136.665497 
L 96.86855 137.590831 
L 98.66025 138.382452 
L 100.45195 138.235347 
L 102.24365 138.800615 
L 104.03535 139.256185 
L 105.82705 139.502812 
L 107.61875 139.590305 
L 109.41045 139.432595 
L 111.20215 139.816364 
L 112.99385 139.494045 
L 114.78555 138.492215 
L 116.57725 137.343588 
L 118.36895 135.704535 
L 120.16065 133.486136 
L 121.95235 130.841261 
L 123.74405 128.021784 
L 125.53575 125.14063 
L 127.32745 120.193758 
L 129.11915 110.940662 
L 130.91085 131.124852 
L 132.70255 125.55783 
L 134.49425 127.601776 
L 136.28595 128.638836 
L 138.07765 128.935043 
L 139.86935 129.307021 
L 141.66105 129.26743 
L 143.45275 128.598171 
L 145.24445 130.111476 
L 147.03615 128.256689 
L 148.82785 129.015221 
L 150.61955 127.686345 
L 152.41125 128.007897 
L 154.20295 126.549227 
L 155.99465 125.218417 
L 157.78635 123.746822 
L 159.57805 122.652196 
L 161.36975 122.11274 
L 163.16145 120.664218 
L 164.95315 119.245111 
L 166.74485 117.803234 
L 168.53655 116.604147 
L 170.32825 113.302266 
L 172.11995 111.431196 
L 173.91165 109.349833 
L 175.70335 106.8855 
L 177.49505 104.438295 
L 179.28675 101.120398 
L 181.07845 97.670392 
L 182.87015 94.951774 
L 184.66185 91.303265 
L 186.45355 86.81254 
L 188.24525 85.398522 
L 190.03695 77.649505 
L 191.82865 78.063819 
L 193.62035 77.649505 
L 195.41205 71.52498 
L 197.20375 68.248925 
L 198.99545 65.517249 
L 200.78715 54.61999 
L 202.57885 57.118263 
L 204.37055 45.147208 
L 206.16225 51.249228 
L 207.95395 47.351159 
L 209.74565 38.0938 
L 211.53735 38.598098 
L 213.32905 34.833272 
L 215.12075 30.398013 
L 216.91245 16.943636 
L 218.70415 18.104864 
" clip-path="url(#pe1446883f4)" style="fill: none; stroke: #008b8b; stroke-width: 1.5; stroke-linecap: square"/>
    <defs>
     <path id="mbe3cad991b" d="M 0 1.5 
C 0.397805 1.5 0.77937 1.341951 1.06066 1.06066 
C 1.341951 0.77937 1.5 0.397805 1.5 0 
C 1.5 -0.397805 1.341951 -0.77937 1.06066 -1.06066 
C 0.77937 -1.341951 0.397805 -1.5 0 -1.5 
C -0.397805 -1.5 -0.77937 -1.341951 -1.06066 -1.06066 
C -1.341951 -0.77937 -1.5 -0.397805 -1.5 0 
C -1.5 0.397805 -1.341951 0.77937 -1.06066 1.06066 
C -0.77937 1.341951 -0.397805 1.5 0 1.5 
z
" style="stroke: #008b8b"/>
    </defs>
    <g clip-path="url(#pe1446883f4)">
     <use xlink:href="#mbe3cad991b" x="41.32585" y="61.669355" style="fill: #008b8b; stroke: #008b8b"/>
     <use xlink:href="#mbe3cad991b" x="43.11755" y="65.34686" style="fill: #008b8b; stroke: #008b8b"/>
     <use xlink:href="#mbe3cad991b" x="44.90925" y="71.790534" style="fill: #008b8b; stroke: #008b8b"/>
     <use xlink:href="#mbe3cad991b" x="46.70095" y="74.65714" style="fill: #008b8b; stroke: #008b8b"/>
     <use xlink:href="#mbe3cad991b" x="48.49265" y="78.971625" style="fill: #008b8b; stroke: #008b8b"/>
     <use xlink:href="#mbe3cad991b" x="50.28435" y="83.323817" style="fill: #008b8b; stroke: #008b8b"/>
     <use xlink:href="#mbe3cad991b" x="52.07605" y="84.462342" style="fill: #008b8b; stroke: #008b8b"/>
     <use xlink:href="#mbe3cad991b" x="53.86775" y="88.827249" style="fill: #008b8b; stroke: #008b8b"/>
     <use xlink:href="#mbe3cad991b" x="55.65945" y="87.735845" style="fill: #008b8b; stroke: #008b8b"/>
     <use xlink:href="#mbe3cad991b" x="57.45115" y="93.610856" style="fill: #008b8b; stroke: #008b8b"/>
     <use xlink:href="#mbe3cad991b" x="59.24285" y="97.482354" style="fill: #008b8b; stroke: #008b8b"/>
     <use xlink:href="#mbe3cad991b" x="61.03455" y="99.476742" style="fill: #008b8b; stroke: #008b8b"/>
     <use xlink:href="#mbe3cad991b" x="62.82625" y="103.454986" style="fill: #008b8b; stroke: #008b8b"/>
     <use xlink:href="#mbe3cad991b" x="64.61795" y="104.616214" style="fill: #008b8b; stroke: #008b8b"/>
     <use xlink:href="#mbe3cad991b" x="66.40965" y="107.869504" style="fill: #008b8b; stroke: #008b8b"/>
     <use xlink:href="#mbe3cad991b" x="68.20135" y="110.1863" style="fill: #008b8b; stroke: #008b8b"/>
     <use xlink:href="#mbe3cad991b" x="69.99305" y="114.356287" style="fill: #008b8b; stroke: #008b8b"/>
     <use xlink:href="#mbe3cad991b" x="71.78475" y="114.949235" style="fill: #008b8b; stroke: #008b8b"/>
     <use xlink:href="#mbe3cad991b" x="73.57645" y="117.487656" style="fill: #008b8b; stroke: #008b8b"/>
     <use xlink:href="#mbe3cad991b" x="75.36815" y="119.84945" style="fill: #008b8b; stroke: #008b8b"/>
     <use xlink:href="#mbe3cad991b" x="77.15985" y="122.479449" style="fill: #008b8b; stroke: #008b8b"/>
     <use xlink:href="#mbe3cad991b" x="78.95155" y="125.89269" style="fill: #008b8b; stroke: #008b8b"/>
     <use xlink:href="#mbe3cad991b" x="80.74325" y="126.013352" style="fill: #008b8b; stroke: #008b8b"/>
     <use xlink:href="#mbe3cad991b" x="82.53495" y="128.035664" style="fill: #008b8b; stroke: #008b8b"/>
     <use xlink:href="#mbe3cad991b" x="84.32665" y="129.59545" style="fill: #008b8b; stroke: #008b8b"/>
     <use xlink:href="#mbe3cad991b" x="86.11835" y="131.706515" style="fill: #008b8b; stroke: #008b8b"/>
     <use xlink:href="#mbe3cad991b" x="87.91005" y="132.426676" style="fill: #008b8b; stroke: #008b8b"/>
     <use xlink:href="#mbe3cad991b" x="89.70175" y="133.630714" style="fill: #008b8b; stroke: #008b8b"/>
     <use xlink:href="#mbe3cad991b" x="91.49345" y="134.969243" style="fill: #008b8b; stroke: #008b8b"/>
     <use xlink:href="#mbe3cad991b" x="93.28515" y="135.540716" style="fill: #008b8b; stroke: #008b8b"/>
     <use xlink:href="#mbe3cad991b" x="95.07685" y="136.665497" style="fill: #008b8b; stroke: #008b8b"/>
     <use xlink:href="#mbe3cad991b" x="96.86855" y="137.590831" style="fill: #008b8b; stroke: #008b8b"/>
     <use xlink:href="#mbe3cad991b" x="98.66025" y="138.382452" style="fill: #008b8b; stroke: #008b8b"/>
     <use xlink:href="#mbe3cad991b" x="100.45195" y="138.235347" style="fill: #008b8b; stroke: #008b8b"/>
     <use xlink:href="#mbe3cad991b" x="102.24365" y="138.800615" style="fill: #008b8b; stroke: #008b8b"/>
     <use xlink:href="#mbe3cad991b" x="104.03535" y="139.256185" style="fill: #008b8b; stroke: #008b8b"/>
     <use xlink:href="#mbe3cad991b" x="105.82705" y="139.502812" style="fill: #008b8b; stroke: #008b8b"/>
     <use xlink:href="#mbe3cad991b" x="107.61875" y="139.590305" style="fill: #008b8b; stroke: #008b8b"/>
     <use xlink:href="#mbe3cad991b" x="109.41045" y="139.432595" style="fill: #008b8b; stroke: #008b8b"/>
     <use xlink:href="#mbe3cad991b" x="111.20215" y="139.816364" style="fill: #008b8b; stroke: #008b8b"/>
     <use xlink:href="#mbe3cad991b" x="112.99385" y="139.494045" style="fill: #008b8b; stroke: #008b8b"/>
     <use xlink:href="#mbe3cad991b" x="114.78555" y="138.492215" style="fill: #008b8b; stroke: #008b8b"/>
     <use xlink:href="#mbe3cad991b" x="116.57725" y="137.343588" style="fill: #008b8b; stroke: #008b8b"/>
     <use xlink:href="#mbe3cad991b" x="118.36895" y="135.704535" style="fill: #008b8b; stroke: #008b8b"/>
     <use xlink:href="#mbe3cad991b" x="120.16065" y="133.486136" style="fill: #008b8b; stroke: #008b8b"/>
     <use xlink:href="#mbe3cad991b" x="121.95235" y="130.841261" style="fill: #008b8b; stroke: #008b8b"/>
     <use xlink:href="#mbe3cad991b" x="123.74405" y="128.021784" style="fill: #008b8b; stroke: #008b8b"/>
     <use xlink:href="#mbe3cad991b" x="125.53575" y="125.14063" style="fill: #008b8b; stroke: #008b8b"/>
     <use xlink:href="#mbe3cad991b" x="127.32745" y="120.193758" style="fill: #008b8b; stroke: #008b8b"/>
     <use xlink:href="#mbe3cad991b" x="129.11915" y="110.940662" style="fill: #008b8b; stroke: #008b8b"/>
     <use xlink:href="#mbe3cad991b" x="130.91085" y="131.124852" style="fill: #008b8b; stroke: #008b8b"/>
     <use xlink:href="#mbe3cad991b" x="132.70255" y="125.55783" style="fill: #008b8b; stroke: #008b8b"/>
     <use xlink:href="#mbe3cad991b" x="134.49425" y="127.601776" style="fill: #008b8b; stroke: #008b8b"/>
     <use xlink:href="#mbe3cad991b" x="136.28595" y="128.638836" style="fill: #008b8b; stroke: #008b8b"/>
     <use xlink:href="#mbe3cad991b" x="138.07765" y="128.935043" style="fill: #008b8b; stroke: #008b8b"/>
     <use xlink:href="#mbe3cad991b" x="139.86935" y="129.307021" style="fill: #008b8b; stroke: #008b8b"/>
     <use xlink:href="#mbe3cad991b" x="141.66105" y="129.26743" style="fill: #008b8b; stroke: #008b8b"/>
     <use xlink:href="#mbe3cad991b" x="143.45275" y="128.598171" style="fill: #008b8b; stroke: #008b8b"/>
     <use xlink:href="#mbe3cad991b" x="145.24445" y="130.111476" style="fill: #008b8b; stroke: #008b8b"/>
     <use xlink:href="#mbe3cad991b" x="147.03615" y="128.256689" style="fill: #008b8b; stroke: #008b8b"/>
     <use xlink:href="#mbe3cad991b" x="148.82785" y="129.015221" style="fill: #008b8b; stroke: #008b8b"/>
     <use xlink:href="#mbe3cad991b" x="150.61955" y="127.686345" style="fill: #008b8b; stroke: #008b8b"/>
     <use xlink:href="#mbe3cad991b" x="152.41125" y="128.007897" style="fill: #008b8b; stroke: #008b8b"/>
     <use xlink:href="#mbe3cad991b" x="154.20295" y="126.549227" style="fill: #008b8b; stroke: #008b8b"/>
     <use xlink:href="#mbe3cad991b" x="155.99465" y="125.218417" style="fill: #008b8b; stroke: #008b8b"/>
     <use xlink:href="#mbe3cad991b" x="157.78635" y="123.746822" style="fill: #008b8b; stroke: #008b8b"/>
     <use xlink:href="#mbe3cad991b" x="159.57805" y="122.652196" style="fill: #008b8b; stroke: #008b8b"/>
     <use xlink:href="#mbe3cad991b" x="161.36975" y="122.11274" style="fill: #008b8b; stroke: #008b8b"/>
     <use xlink:href="#mbe3cad991b" x="163.16145" y="120.664218" style="fill: #008b8b; stroke: #008b8b"/>
     <use xlink:href="#mbe3cad991b" x="164.95315" y="119.245111" style="fill: #008b8b; stroke: #008b8b"/>
     <use xlink:href="#mbe3cad991b" x="166.74485" y="117.803234" style="fill: #008b8b; stroke: #008b8b"/>
     <use xlink:href="#mbe3cad991b" x="168.53655" y="116.604147" style="fill: #008b8b; stroke: #008b8b"/>
     <use xlink:href="#mbe3cad991b" x="170.32825" y="113.302266" style="fill: #008b8b; stroke: #008b8b"/>
     <use xlink:href="#mbe3cad991b" x="172.11995" y="111.431196" style="fill: #008b8b; stroke: #008b8b"/>
     <use xlink:href="#mbe3cad991b" x="173.91165" y="109.349833" style="fill: #008b8b; stroke: #008b8b"/>
     <use xlink:href="#mbe3cad991b" x="175.70335" y="106.8855" style="fill: #008b8b; stroke: #008b8b"/>
     <use xlink:href="#mbe3cad991b" x="177.49505" y="104.438295" style="fill: #008b8b; stroke: #008b8b"/>
     <use xlink:href="#mbe3cad991b" x="179.28675" y="101.120398" style="fill: #008b8b; stroke: #008b8b"/>
     <use xlink:href="#mbe3cad991b" x="181.07845" y="97.670392" style="fill: #008b8b; stroke: #008b8b"/>
     <use xlink:href="#mbe3cad991b" x="182.87015" y="94.951774" style="fill: #008b8b; stroke: #008b8b"/>
     <use xlink:href="#mbe3cad991b" x="184.66185" y="91.303265" style="fill: #008b8b; stroke: #008b8b"/>
     <use xlink:href="#mbe3cad991b" x="186.45355" y="86.81254" style="fill: #008b8b; stroke: #008b8b"/>
     <use xlink:href="#mbe3cad991b" x="188.24525" y="85.398522" style="fill: #008b8b; stroke: #008b8b"/>
     <use xlink:href="#mbe3cad991b" x="190.03695" y="77.649505" style="fill: #008b8b; stroke: #008b8b"/>
     <use xlink:href="#mbe3cad991b" x="191.82865" y="78.063819" style="fill: #008b8b; stroke: #008b8b"/>
     <use xlink:href="#mbe3cad991b" x="193.62035" y="77.649505" style="fill: #008b8b; stroke: #008b8b"/>
     <use xlink:href="#mbe3cad991b" x="195.41205" y="71.52498" style="fill: #008b8b; stroke: #008b8b"/>
     <use xlink:href="#mbe3cad991b" x="197.20375" y="68.248925" style="fill: #008b8b; stroke: #008b8b"/>
     <use xlink:href="#mbe3cad991b" x="198.99545" y="65.517249" style="fill: #008b8b; stroke: #008b8b"/>
     <use xlink:href="#mbe3cad991b" x="200.78715" y="54.61999" style="fill: #008b8b; stroke: #008b8b"/>
     <use xlink:href="#mbe3cad991b" x="202.57885" y="57.118263" style="fill: #008b8b; stroke: #008b8b"/>
     <use xlink:href="#mbe3cad991b" x="204.37055" y="45.147208" style="fill: #008b8b; stroke: #008b8b"/>
     <use xlink:href="#mbe3cad991b" x="206.16225" y="51.249228" style="fill: #008b8b; stroke: #008b8b"/>
     <use xlink:href="#mbe3cad991b" x="207.95395" y="47.351159" style="fill: #008b8b; stroke: #008b8b"/>
     <use xlink:href="#mbe3cad991b" x="209.74565" y="38.0938" style="fill: #008b8b; stroke: #008b8b"/>
     <use xlink:href="#mbe3cad991b" x="211.53735" y="38.598098" style="fill: #008b8b; stroke: #008b8b"/>
     <use xlink:href="#mbe3cad991b" x="213.32905" y="34.833272" style="fill: #008b8b; stroke: #008b8b"/>
     <use xlink:href="#mbe3cad991b" x="215.12075" y="30.398013" style="fill: #008b8b; stroke: #008b8b"/>
     <use xlink:href="#mbe3cad991b" x="216.91245" y="16.943636" style="fill: #008b8b; stroke: #008b8b"/>
     <use xlink:href="#mbe3cad991b" x="218.70415" y="18.104864" style="fill: #008b8b; stroke: #008b8b"/>
    </g>
   </g>
   <g id="line2d_18">
    <path d="M 130.015 145.96 
L 130.015 10.8 
" clip-path="url(#pe1446883f4)" style="fill: none; stroke-dasharray: 3.7,1.6; stroke-dashoffset: 0; stroke: #ff0000; stroke-opacity: 0.7"/>
   </g>
   <g id="patch_3">
    <path d="M 40.43 145.96 
L 40.43 10.8 
" style="fill: none; stroke: #000000; stroke-width: 0.8; stroke-linejoin: miter; stroke-linecap: square"/>
   </g>
   <g id="patch_4">
    <path d="M 219.6 145.96 
L 219.6 10.8 
" style="fill: none; stroke: #000000; stroke-width: 0.8; stroke-linejoin: miter; stroke-linecap: square"/>
   </g>
   <g id="patch_5">
    <path d="M 40.43 145.96 
L 219.6 145.96 
" style="fill: none; stroke: #000000; stroke-width: 0.8; stroke-linejoin: miter; stroke-linecap: square"/>
   </g>
   <g id="patch_6">
    <path d="M 40.43 10.8 
L 219.6 10.8 
" style="fill: none; stroke: #000000; stroke-width: 0.8; stroke-linejoin: miter; stroke-linecap: square"/>
   </g>
  </g>
 </g>
 <defs>
  <clipPath id="pe1446883f4">
   <rect x="40.43" y="10.8" width="179.17" height="135.16"/>
  </clipPath>
 </defs>
</svg>
